<svg id="Capa_1" enable-background="new 0 0 512 512" height="512" viewBox="0 0 512 512" width="512" xmlns="http://www.w3.org/2000/svg"><g><path d="m505.296 224.459c-4.326-1.828-9.178-.775-12.357 2.686-13.622 14.826-31.116 35.471-37.1 49.632-7.795 18.45-8.321 35.43-2.224 45.015-1.868 3.394-3.813 6.748-5.844 10.051-1.691-14.712-9.154-36.051-15.463-52.112-1.689-4.296-5.791-6.987-10.37-6.836-4.612.143-8.509 3.073-9.927 7.466-5.855 18.13-12.739 42.8-12.287 57.37.532 17.205 5.74 31.024 13.473 37.89-.342.341-.68.69-1.023 1.029-6.473 2.021-11.125 5.848-13.037 11.331-.092.263-.163.528-.241.793-.623.525-1.251 1.047-1.881 1.567-.951-5.566-2.72-11.534-5.349-17.671-5.742-13.402-22.396-32.859-35.356-46.822-3.139-3.383-7.911-4.395-12.151-2.577-4.241 1.817-6.799 5.969-6.514 10.576 1.17 19.015 3.771 44.494 9.512 57.894 4.027 9.398 9.154 17.077 14.687 22.517-1.35.743-2.704 1.473-4.062 2.184-4.743.71-8.285 2.094-10.933 3.757v-7.883c0-8.83-7.185-16.015-16.015-16.015h-9.202c.267-5.074-1.943-9.962-6.198-13.188l-20.057-15.202c-6.714-5.088-10.723-13.156-10.723-21.58v-28.934c23.446-6.927 43.831-22.13 57.333-43.525l.952-1.509h17.214c19.719 0 39.23-6.565 54.938-18.485l56.401-42.797c28.838-21.882 40.103-59.515 28.03-93.643-11.538-32.619-42.537-54.811-77.138-55.223-7.812-.092-15.405-.105-22.657-.042v-32.966c0-8.998-7.321-16.318-16.319-16.318h-181.456c-4.131 0-7.48 3.349-7.48 7.48s3.348 7.48 7.48 7.48h181.455c.75 0 1.36.61 1.36 1.359v90.175c0 38.381-10.827 75.824-31.31 108.281l-24.122 38.223c-16.12 25.545-43.724 40.759-73.906 40.759-.14 0-.281 0-.423-.001-30.346-.143-57.988-15.64-73.942-41.455l-23.53-38.074c-19.822-32.074-30.299-68.958-30.299-106.662v-91.247c0-.749.61-1.359 1.36-1.359h38.305c4.131 0 7.48-3.349 7.48-7.48s-3.348-7.48-7.48-7.48h-38.305c-8.998 0-16.319 7.32-16.319 16.318v32.964c-7.246-.064-14.838-.05-22.657.043-34.601.412-65.601 22.604-77.138 55.223-12.073 34.128-.808 71.76 28.03 93.643l56.401 42.797c15.708 11.92 35.219 18.485 54.938 18.485h16.061l.428.692c13.112 21.216 32.968 36.469 55.926 43.746v29.529c0 8.424-4.009 16.492-10.723 21.581l-20.058 15.202c-4.255 3.225-6.466 8.114-6.198 13.188h-6.117c-8.83 0-16.015 7.185-16.015 16.015v7.883c-2.651-1.665-6.197-3.05-10.947-3.759-1.353-.708-2.703-1.44-4.051-2.181 5.534-5.44 10.662-13.12 14.688-22.518 5.741-13.4 8.342-38.879 9.512-57.894.284-4.607-2.273-8.758-6.514-10.576-4.242-1.817-9.011-.806-12.151 2.577-12.959 13.961-29.612 33.418-35.356 46.821-2.63 6.137-4.399 12.107-5.35 17.674-.631-.521-1.258-1.047-1.882-1.574-.077-.263-.148-.527-.239-.789-1.912-5.484-6.564-9.31-13.037-11.332-.343-.338-.68-.688-1.022-1.029 7.731-6.867 12.939-20.687 13.472-37.889.452-14.57-6.432-39.24-12.287-57.37-1.418-4.392-5.315-7.322-9.927-7.465-4.578-.153-8.682 2.54-10.37 6.837-6.31 16.063-13.775 37.407-15.464 52.119-2.032-3.304-3.975-6.662-5.844-10.058 6.097-9.585 5.571-26.565-2.225-45.016-5.983-14.161-23.477-34.806-37.099-49.632-3.179-3.46-8.03-4.516-12.357-2.686-4.327 1.829-6.952 6.042-6.686 10.731 1.136 20.103 3.745 47.038 9.727 61.197 8.685 20.556 22.351 33.383 34.5 33.383.474 0 .945-.029 1.414-.068 6.204 11.189 13.26 21.947 21.025 32.026.291.377.617.708.96 1.014 2.129 5.729 5.075 10.302 8.639 13.351-3.968.733-8.107 1.825-12.351 3.305-13.767 4.801-34.331 20.067-49.157 32.027-3.593 2.898-4.933 7.586-3.414 11.944 1.964 6.159 8.302 7.807 14.14 7.248 18.494 0 41.561-1.027 54.373-5.495h.001c13.781-4.805 24.227-12.089 29.668-19.945 1.965 1.554 3.949 3.078 5.944 4.558 1.373 4.686 3.8 8.403 7.24 10.788-13.755 5.045-33.903 20.012-48.499 31.786-3.592 2.899-4.931 7.587-3.412 11.944 1.964 6.159 8.303 7.806 14.139 7.247 18.494 0 41.562-1.027 54.373-5.495 10.063-3.509 18.98-8.724 25.108-14.686.246-.239.48-.477.713-.714v32.49c0 8.83 7.185 16.015 16.015 16.015h95.509c4.131 0 7.48-3.349 7.48-7.48s-3.348-7.48-7.48-7.48h-95.509c-.582 0-1.056-.474-1.056-1.056v-70.782c0-.582.473-1.056 1.056-1.056h149.663c.582 0 1.056.474 1.056 1.056v70.782c0 .582-.473 1.056-1.056 1.056h-18.065c-4.131 0-7.48 3.349-7.48 7.48s3.348 7.48 7.48 7.48h18.065c8.83 0 16.015-7.185 16.015-16.015v-32.49c.233.237.467.475.713.714 6.128 5.962 15.045 11.177 25.108 14.686h-.001c12.814 4.468 35.88 5.495 54.374 5.495 5.836.56 12.178-1.09 14.139-7.247 1.519-4.357.18-9.045-3.413-11.944-14.595-11.773-34.743-26.741-48.497-31.785 3.441-2.387 5.869-6.107 7.242-10.797 1.996-1.481 3.982-2.995 5.944-4.546 5.442 7.855 15.887 15.137 29.666 19.942h.001c12.814 4.468 35.88 5.495 54.373 5.495 5.836.56 12.179-1.091 14.14-7.248 1.519-4.357.179-9.045-3.414-11.943-14.826-11.961-35.39-27.227-49.158-32.028-4.243-1.479-8.382-2.572-12.35-3.305 3.476-2.974 6.361-7.4 8.477-12.931.026-.033.057-.061.083-.094 8.182-10.473 15.585-21.682 22.063-33.366.47.039.942.068 1.417.068 12.149 0 25.814-12.827 34.5-33.383 5.983-14.159 8.592-41.094 9.727-61.196.271-4.69-2.353-8.903-6.68-10.731zm-140.853 13.824c10.875-.835 21.444-4.812 30.15-11.418l22.652-17.189c3.291-2.497 3.935-7.189 1.437-10.48-2.496-3.29-7.186-3.934-10.479-1.437l-22.652 17.189c-3.328 2.525-7.028 4.523-10.934 5.955 16.465-31.239 25.107-66.004 25.107-101.521v-8.336c7.076-.067 14.468-.059 22.076.031 14.198.169 26.917 9.274 31.651 22.657 4.953 14.001.331 29.44-11.5 38.418l-8.092 6.141c-3.291 2.497-3.935 7.189-1.438 10.48 1.472 1.939 3.704 2.959 5.964 2.959 1.575 0 3.164-.496 4.515-1.522l8.092-6.14c17.039-12.928 23.693-35.161 16.56-55.323-6.816-19.271-25.132-32.382-45.575-32.626-7.664-.091-15.117-.1-22.254-.033v-18.956c7.188-.064 14.72-.052 22.48.041 28.354.338 53.758 18.524 63.213 45.253 9.893 27.967.662 58.806-22.97 76.738l-56.401 42.797c-13.123 9.958-29.423 15.442-45.896 15.442h-7.774zm-227.761-17.652c-3.659-1.414-7.123-3.322-10.233-5.682l-56.4-42.797c-11.831-8.977-16.453-24.416-11.5-38.418 4.734-13.382 17.453-22.487 31.65-22.656 7.607-.09 14.999-.097 22.077-.03v9.405c-.001 34.972 8.4 69.282 24.406 100.178zm15.167 36.771c-16.474 0-32.773-5.484-45.896-15.442l-56.401-42.797c-23.632-17.932-32.863-48.77-22.97-76.738 9.456-26.729 34.859-44.915 63.213-45.253 7.765-.092 15.298-.105 22.48-.041v18.956c-7.142-.067-14.593-.059-22.255.032-20.442.244-38.758 13.355-45.574 32.625-7.133 20.163-.478 42.396 16.56 55.324l56.4 42.797c8.451 6.413 18.807 10.394 29.405 11.355l11.854 19.182zm-17.764 121.157c3.131-7.306 11.861-19.25 24.442-33.55-1.676 18.974-4.303 33.534-7.432 40.839-7.343 17.136-17.517 23.41-19.696 22.476-2.187-.937-4.658-12.625 2.686-29.765zm-55.256-41.866c.246-7.943 4.012-22.25 10.502-40.158 5.369 18.276 8.241 32.789 7.995 40.731-.576 18.567-7.697 28.118-10.1 28.117-.009 0-.019 0-.027 0-2.377-.073-8.946-10.052-8.37-28.69zm-55.304-46.128c-3.363-7.959-6.123-23.944-7.79-44.737 13.746 15.688 23.283 28.81 26.646 36.77 7.716 18.264 5.188 30.945 2.452 32.101-2.737 1.153-13.59-5.871-21.308-24.134zm51.427 120.432c-7.504 2.617-22.208 4.228-41.255 4.586 15.137-11.561 27.657-19.442 35.162-22.059 7.526-2.624 13.933-3.527 18.865-3.527 6.607 0 10.567 1.623 11.015 2.909.783 2.244-6.18 11.952-23.787 18.091zm79.057 29.601c-4.529 4.406-11.673 8.518-19.601 11.282h-.001c-7.503 2.617-22.209 4.228-41.254 4.586 15.138-11.561 27.659-19.443 35.163-22.059 7.946-2.679 15.073-3.965 22.366-3.35 5.088.514 7.29 2.091 7.513 2.731s-.52 3.245-4.186 6.81zm48.268-44.779c-.162-.48.054-.642.242-.786l20.058-15.202c10.423-7.9 16.646-20.424 16.646-33.502v-25.998c5.144.811 10.391 1.248 15.712 1.273.168 0 .328.001.495.001 4.82 0 9.581-.343 14.263-.992v25.716c0 13.079 6.223 25.604 16.646 33.502l20.057 15.202c.189.144.404.306.243.786-.162.48-.43.48-.667.48h-103.027c-.238 0-.507 0-.668-.48zm220.392-99.284c6.49 17.908 10.255 32.215 10.502 40.158.577 18.638-5.992 28.617-8.369 28.69-.009 0-.018 0-.027 0-2.404 0-9.525-9.552-10.1-28.118-.247-7.941 2.625-22.454 7.994-40.73zm-61.764 89.313c-3.129-7.305-5.756-21.865-7.432-40.839 12.582 14.3 21.312 26.245 24.442 33.55 7.343 17.14 4.872 28.828 2.686 29.765-2.178.94-12.354-5.341-19.696-22.476zm16.688 66.032c-7.929-2.764-15.073-6.876-19.602-11.282-3.666-3.565-4.409-6.169-4.186-6.81s2.425-2.217 7.513-2.731c7.29-.615 14.424.672 22.367 3.35 7.503 2.616 20.024 10.498 35.162 22.059-19.042-.357-33.751-1.969-41.254-4.586zm100.71-36.298c-19.044-.357-33.751-1.969-41.256-4.586h.001c-17.607-6.139-24.57-15.847-23.787-18.092.782-2.246 12.272-5.521 29.879.619 7.506 2.617 20.025 10.499 35.163 22.059zm10.172-125.017c-7.715 18.26-18.558 25.298-21.308 24.134-2.736-1.156-5.264-13.837 2.451-32.101 3.364-7.96 12.901-21.082 26.647-36.77-1.667 20.792-4.427 36.778-7.79 44.737z"/><path d="m253.626 214.52c35.917 0 65.138-29.221 65.138-65.138s-29.221-65.138-65.138-65.138-65.138 29.221-65.138 65.138 29.221 65.138 65.138 65.138zm0-115.317c27.669 0 50.179 22.51 50.179 50.179s-22.51 50.179-50.179 50.179-50.179-22.51-50.179-50.179 22.51-50.179 50.179-50.179z"/><path d="m229.772 159.93-1.976 11.519c-.729 4.25.985 8.464 4.473 10.999s8.025 2.863 11.844.857l10.345-5.439 10.344 5.438c3.801 2.001 8.346 1.686 11.844-.856 3.489-2.535 5.203-6.749 4.474-10.998l-1.976-11.52 8.37-8.158c3.087-3.009 4.177-7.427 2.846-11.527-1.332-4.101-4.811-7.034-9.079-7.654l-11.566-1.681-5.172-10.481c-1.908-3.866-5.771-6.268-10.082-6.269-.001 0-.001 0-.002 0-4.311 0-8.176 2.402-10.085 6.269l-5.172 10.481-11.566 1.681c-4.267.62-7.745 3.553-9.078 7.653-1.332 4.101-.242 8.518 2.846 11.528zm13.511-14.497c3.665-.533 6.831-2.833 8.468-6.152l2.706-5.484 2.707 5.487c1.639 3.319 4.804 5.617 8.466 6.149l6.052.879-4.378 4.267c-2.652 2.583-3.862 6.305-3.236 9.955l1.034 6.028-5.411-2.844c-1.639-.862-3.436-1.293-5.235-1.293-1.797 0-3.595.43-5.234 1.292l-5.412 2.846 1.034-6.028c.624-3.647-.583-7.368-3.234-9.953l-4.38-4.269z"/></g></svg>