<svg id="Capa_1" enable-background="new 0 0 512 512" height="512" viewBox="0 0 512 512" width="512" xmlns="http://www.w3.org/2000/svg"><g><path d="m426.165 0h-340.33c-5.523 0-10 4.478-10 10v55.777c0 5.522 4.477 10 10 10h23.554l91.179 91.112 30.339 30.317-13.701 6.922-38.358 2.117c-3.179.175-6.085 1.854-7.825 4.521l-20.98 32.167-32.174 20.974c-2.668 1.739-4.348 4.646-4.524 7.825l-2.117 38.348-17.325 34.275c-1.434 2.836-1.434 6.186 0 9.021l17.325 34.275 2.117 38.349c.176 3.18 1.855 6.086 4.524 7.825l32.174 20.975 20.98 32.166c1.74 2.667 4.646 4.347 7.825 4.521l38.358 2.117 34.285 17.321c1.418.716 2.963 1.074 4.509 1.074s3.091-.358 4.509-1.074l34.284-17.321 38.358-2.116c3.18-.175 6.085-1.854 7.825-4.521l20.98-32.167 32.174-20.975c2.668-1.739 4.348-4.646 4.524-7.825l2.117-38.348 17.325-34.275c1.434-2.836 1.434-6.186 0-9.021l-17.325-34.275-2.117-38.347c-.176-3.18-1.855-6.086-4.524-7.825l-32.174-20.975-20.98-32.167c-1.74-2.667-4.646-4.347-7.825-4.521l-38.358-2.117-13.701-6.922 121.518-121.43h23.554c5.523 0 10-4.478 10-10v-55.777c.001-5.522-4.476-10-9.999-10zm-170.165 97.352-21.59-21.574h43.18zm-14.147 14.136-34.216 34.191-69.953-69.902h68.432zm49.749 112.493 35.391 1.954 19.363 29.688c.759 1.163 1.751 2.156 2.915 2.914l29.694 19.358 1.954 35.379c.076 1.379.437 2.727 1.06 3.959l15.989 31.633-15.99 31.634c-.623 1.232-.984 2.58-1.06 3.959l-1.954 35.379-29.694 19.358c-1.164.758-2.156 1.751-2.915 2.914l-19.363 29.688-35.39 1.953c-1.378.075-2.726.437-3.958 1.059l-31.644 15.986-31.644-15.986c-1.232-.622-2.58-.983-3.958-1.059l-35.391-1.954-19.363-29.687c-.759-1.163-1.751-2.156-2.915-2.914l-29.694-19.358-1.954-35.379c-.076-1.379-.437-2.727-1.06-3.959l-15.989-31.634 15.989-31.633c.623-1.232.984-2.58 1.06-3.959l1.954-35.38 29.694-19.357c1.164-.758 2.156-1.751 2.915-2.914l19.363-29.688 35.39-1.954c1.378-.075 2.726-.437 3.958-1.059l31.645-15.985 31.644 15.986c1.232.622 2.58.983 3.958 1.058zm-29.302-36.269-1.791-.905c-2.836-1.432-6.183-1.432-9.019 0l-1.791.905-27.916-27.896 84.1-84.039h68.433zm153.865-131.935h-320.33v-35.777h320.329v35.777z"/><path d="m144.673 348.866c0 61.372 49.941 111.302 111.327 111.302s111.327-49.93 111.327-111.302-49.941-111.302-111.327-111.302-111.327 49.93-111.327 111.302zm202.654 0c0 50.344-40.969 91.302-91.327 91.302s-91.327-40.958-91.327-91.302 40.969-91.302 91.327-91.302 91.327 40.958 91.327 91.302z"/><path d="m237.953 326.613c0 4.854 3.459 8.901 8.047 9.809v24.889c-4.588.908-8.047 4.955-8.047 9.809 0 5.522 4.477 10 10 10h16.095c5.523 0 10-4.478 10-10 0-4.854-3.459-8.901-8.047-9.809v-24.889c4.588-.908 8.047-4.955 8.047-9.809 0-5.522-4.477-10-10-10h-16.095c-5.523 0-10 4.478-10 10z"/></g></svg>