<svg id="Layer_1" enable-background="new 0 0 512 512" height="512" viewBox="0 0 512 512" width="512" xmlns="http://www.w3.org/2000/svg"><g id="XMLID_1095_"><g id="XMLID_485_"><path id="XMLID_1334_" d="m235.22 421.107c-83.02-10.329-145.625-81.31-145.625-165.108 0-26.841 6.541-53.454 18.901-77.068 15.224-16.065 21.12-39.085 15.384-60.496-5.879-21.94-23.181-39.241-45.152-45.152-3.456-.931-7.147.059-9.676 2.592-16.071 16.104-22.404 39.738-16.525 61.681 4.833 18.035 17.387 32.929 33.905 40.945-3.763 8.239-6.902 16.76-9.424 25.467-1.843-2.488-3.872-4.859-6.094-7.081-16.062-16.061-39.695-22.395-61.679-16.528-3.459.923-6.161 3.625-7.084 7.084-5.866 21.983.468 45.617 16.528 61.679 12.101 12.102 28.498 18.68 45.252 18.68 2.006 0 4.018-.097 6.028-.287.651 10.589 2.185 20.964 4.549 31.039-2.843-1.234-5.789-2.275-8.827-3.089-21.938-5.881-45.574.452-61.68 16.525-2.533 2.528-3.522 6.219-2.592 9.676 5.911 21.973 23.213 39.273 45.153 45.151 5.418 1.452 10.936 2.159 16.421 2.159 13.057-.001 25.903-4.026 36.685-11.541 6.069 9.341 12.955 18.115 20.564 26.218-21.404 1.159-41.06 13.125-51.882 31.825-1.793 3.099-1.793 6.919 0 10.018 11.396 19.693 32.586 31.927 55.301 31.927 22.627 0 43.738-12.142 55.166-31.702 16.745 7.627 34.856 12.863 53.933 15.236.419.052.835.077 1.247.077 4.972 0 9.281-3.705 9.911-8.767.683-5.482-3.208-10.477-8.688-11.16zm-183.481-73.61c-13.11-3.513-23.812-12.971-29.047-25.315 10.705-8.073 24.697-10.916 37.813-7.4 13.11 3.513 23.812 12.971 29.047 25.315-10.706 8.073-24.704 10.913-37.813 7.4zm20.106-215.118c-3.513-13.111-.673-27.107 7.4-37.813 12.345 5.235 21.804 15.937 25.316 29.046 3.513 13.111.672 27.107-7.401 37.813-12.344-5.236-21.802-15.936-25.315-29.046zm-39.023 102.599c-9.598-9.597-14.136-23.138-12.498-36.447 13.311-1.636 26.85 2.9 36.447 12.498 9.598 9.597 14.136 23.139 12.498 36.447-13.312 1.634-26.849-2.901-36.447-12.498zm90.83 202.443c-13.573 0-26.357-6.366-34.609-16.936 8.252-10.568 21.036-16.935 34.609-16.935s26.357 6.366 34.609 16.935c-8.251 10.57-21.036 16.936-34.609 16.936z"/><path id="XMLID_1441_" d="m446.289 295.463c-3.039.814-5.984 1.855-8.827 3.089 2.364-10.076 3.898-20.45 4.549-31.039 2.01.19 4.021.287 6.028.287 16.752 0 33.152-6.579 45.252-18.68 16.061-16.062 22.395-39.695 16.528-61.679-.923-3.459-3.625-6.161-7.084-7.084-21.981-5.863-45.617.468-61.679 16.528-2.222 2.222-4.25 4.594-6.094 7.081-2.522-8.707-5.661-17.227-9.424-25.467 16.518-8.016 29.072-22.909 33.905-40.946 5.879-21.941-.454-45.575-16.525-61.68-2.528-2.533-6.217-3.525-9.676-2.592-21.972 5.911-39.273 23.212-45.152 45.152-5.736 21.41.16 44.431 15.384 60.496 12.361 23.614 18.901 50.227 18.901 77.068 0 83.798-62.605 154.779-145.625 165.108-5.48.683-9.371 5.678-8.689 11.158.63 5.062 4.938 8.767 9.911 8.767.412 0 .828-.025 1.247-.077 19.077-2.374 37.188-7.609 53.933-15.236 11.427 19.56 32.538 31.702 55.166 31.702 22.715 0 43.904-12.233 55.301-31.927 1.793-3.099 1.793-6.919 0-10.018-10.822-18.7-30.478-30.666-51.882-31.825 7.609-8.103 14.495-16.876 20.563-26.217 10.782 7.515 23.628 11.54 36.686 11.54 5.484 0 11.004-.708 16.421-2.159 21.94-5.878 39.242-23.179 45.153-45.151.931-3.457-.059-7.147-2.592-9.676-16.104-16.07-39.738-22.405-61.679-16.523zm8.91-84.435c9.598-9.599 23.133-14.136 36.447-12.498 1.638 13.31-2.9 26.851-12.498 36.447-9.597 9.598-23.139 14.135-36.447 12.498-1.638-13.308 2.9-26.85 12.498-36.447zm-47.79-87.417c3.513-13.109 12.972-23.811 25.316-29.046 8.073 10.706 10.913 24.702 7.4 37.813-3.514 13.111-12.972 23.812-25.315 29.047-8.073-10.706-10.914-24.702-7.401-37.814zm15.519 296.874c-8.252 10.569-21.036 16.936-34.609 16.936s-26.357-6.366-34.609-16.936c8.252-10.568 21.036-16.935 34.609-16.935s26.357 6.367 34.609 16.935zm37.303-72.988c-13.111 3.513-27.106.673-37.813-7.4 5.235-12.345 15.937-21.803 29.047-25.315 13.115-3.512 27.108-.672 37.813 7.4-5.235 12.344-15.936 21.802-29.047 25.315z"/><path id="XMLID_1454_" d="m320.272 352.022c7.145-5.191 9.986-13.969 7.239-22.363l-15.707-47.983 41.005-29.655c7.148-5.17 10.012-13.934 7.295-22.326-2.717-8.394-10.173-13.816-18.994-13.816h-50.627l-15.501-47.954c-2.715-8.398-10.171-13.825-18.997-13.825s-16.282 5.427-18.997 13.824l-15.501 47.955h-50.627c-8.821 0-16.277 5.423-18.994 13.816s.146 17.156 7.295 22.325l41.005 29.656-15.707 47.984c-2.747 8.394.095 17.171 7.239 22.362 3.566 2.591 7.651 3.886 11.735 3.886 4.099 0 8.197-1.304 11.77-3.912l40.782-29.767 40.782 29.767c7.133 5.208 16.359 5.217 23.505.026zm-64.287-52.172c-2.069 0-4.14.641-5.896 1.923l-46.589 34.004 17.943-54.815c1.353-4.133-.12-8.666-3.644-11.214l-46.831-33.869h57.795c4.338 0 8.181-2.797 9.516-6.924l17.705-54.774 17.705 54.774c1.335 4.127 5.178 6.924 9.516 6.924h57.795l-46.831 33.869c-3.523 2.548-4.996 7.081-3.644 11.214l17.943 54.815-46.589-34.004c-1.754-1.283-3.824-1.923-5.894-1.923z"/><path id="XMLID_1455_" d="m255.985 20c2.63 0 5.21-1.07 7.069-2.931 1.86-1.859 2.931-4.439 2.931-7.069s-1.07-5.21-2.931-7.07c-1.859-1.86-4.439-2.93-7.069-2.93s-5.21 1.069-7.07 2.93-2.93 4.44-2.93 7.07 1.069 5.2 2.93 7.069c1.86 1.861 4.44 2.931 7.07 2.931z"/><path id="XMLID_1456_" d="m177.63 111.629c1.697 3.638 5.304 5.775 9.07 5.775 1.414 0 2.853-.302 4.22-.938 5.005-2.334 7.171-8.284 4.837-13.29l-26.102-55.976c-2.334-5.003-8.281-7.169-13.29-4.837-5.005 2.334-7.171 8.284-4.837 13.29z"/><path id="XMLID_1470_" d="m255.972 114.499h.013c5.518 0 9.993-4.469 10-9.987l.063-49.437c.007-5.522-4.464-10.006-9.987-10.013-.004 0-.009 0-.013 0-5.518 0-9.993 4.469-10 9.987l-.063 49.437c-.007 5.523 4.464 10.006 9.987 10.013z"/><path id="XMLID_1471_" d="m321.051 116.466c1.367.637 2.805.938 4.22.938 3.767 0 7.373-2.138 9.07-5.775l26.102-55.976c2.334-5.006.168-10.956-4.837-13.29-5.007-2.331-10.955-.167-13.29 4.837l-26.102 55.976c-2.334 5.006-.168 10.956 4.837 13.29z"/></g></g></svg>