<svg id="Icons" height="512" viewBox="0 0 74 74" width="512" xmlns="http://www.w3.org/2000/svg"><path d="m37 42.365a1 1 0 0 1 -.575-.182c-.682-.48-16.683-11.878-16.683-23.613a10.573 10.573 0 0 1 10.394-10.721 10.225 10.225 0 0 1 6.864 2.686 10.225 10.225 0 0 1 6.864-2.686 10.573 10.573 0 0 1 10.394 10.721c0 11.735-16 23.133-16.683 23.613a1 1 0 0 1 -.575.182zm-6.864-32.516a8.572 8.572 0 0 0 -8.394 8.721c0 9.518 12.411 19.41 15.258 21.553 2.847-2.143 15.258-12.035 15.258-21.553a8.572 8.572 0 0 0 -8.394-8.721 8.148 8.148 0 0 0 -6.12 2.772 1.034 1.034 0 0 1 -1.488 0 8.148 8.148 0 0 0 -6.12-2.772z"/><path d="m69.869 38.779a.892.892 0 0 1 -.1-.005 1 1 0 0 1 -.894-1.1l.213-2.092a.988.988 0 0 1 1.1-.894 1 1 0 0 1 .893 1.1l-.213 2.092a1 1 0 0 1 -.999.899z"/><path d="m51.294 66.151a2.478 2.478 0 0 1 -.3-.018 32.484 32.484 0 0 1 -11.076-3.22 2.44 2.44 0 0 1 -1.237-2.874l2.119-7.066a13.726 13.726 0 0 1 3.52-5.953 9.57 9.57 0 0 1 7.075-3.009c.076-.008 3.725-.262 6.989-5.118l.441-.6a3.934 3.934 0 0 1 5.165-1.048c.082.047.174.106.266.167.024.017.064.045.088.064l-.537.849.618-.786a3.928 3.928 0 0 1 .7 5.5c-2.7 3.564-6.546 8.087-9.5 9.4a1 1 0 0 1 -.813-1.827c1.97-.877 5.147-4.078 8.715-8.782a1.942 1.942 0 0 0 -.344-2.72 1.856 1.856 0 0 0 -.2-.135 1.939 1.939 0 0 0 -2.556.506l-.415.562c-3.836 5.717-8.418 5.957-8.612 5.966a7.715 7.715 0 0 0 -5.686 2.444 11.715 11.715 0 0 0 -3 5.091l-2.114 7.071a.444.444 0 0 0 .235.518 30.492 30.492 0 0 0 10.4 3.014.44.44 0 0 0 .5-.337l.326-1.443a7.722 7.722 0 0 1 4.479-5.367l7.609-3.247a5.886 5.886 0 0 0 3.477-4.253 1 1 0 0 1 1.961.4 7.89 7.89 0 0 1 -4.654 5.7l-7.608 3.24a5.714 5.714 0 0 0 -3.318 3.971l-.325 1.441a2.442 2.442 0 0 1 -2.388 1.899z"/><path d="m69.15 45.766c-.033 0-.067 0-.1 0a1 1 0 0 1 -.9-1.1l.207-2.051a1 1 0 0 1 1.991.2l-.207 2.051a1 1 0 0 1 -.991.9z"/><path d="m64.469 38.263-1-.109-.979-.2 1.9-12.041a3.825 3.825 0 0 1 7.583.99l-.4 3.946a1 1 0 0 1 -1.99-.2l.4-3.95a1.83 1.83 0 0 0 -1.718-2.014 1.839 1.839 0 0 0 -1.9 1.542z"/><path d="m4.131 38.779a1 1 0 0 1 -.994-.9l-.213-2.092a1 1 0 0 1 .893-1.1.984.984 0 0 1 1.1.894l.213 2.092a1 1 0 0 1 -.894 1.1.892.892 0 0 1 -.105.006z"/><path d="m22.706 66.151a2.44 2.44 0 0 1 -2.387-1.9l-.327-1.447a5.712 5.712 0 0 0 -3.317-3.967l-7.61-3.247a7.888 7.888 0 0 1 -4.652-5.7 1 1 0 0 1 1.961-.4 5.885 5.885 0 0 0 3.475 4.255l7.611 3.255a7.72 7.72 0 0 1 4.482 5.363l.328 1.449a.447.447 0 0 0 .5.335 30.476 30.476 0 0 0 10.4-3.013.444.444 0 0 0 .239-.517l-2.116-7.071a11.727 11.727 0 0 0 -3-5.091 7.67 7.67 0 0 0 -5.623-2.445c-.264-.008-4.846-.25-8.712-6l-.391-.528a1.936 1.936 0 0 0 -2.542-.512c-.068.039-.119.074-.171.108a1.958 1.958 0 0 0 -.385 2.755c3.568 4.7 6.745 7.905 8.715 8.782a1 1 0 0 1 -.813 1.827c-2.95-1.314-6.792-5.837-9.5-9.4a3.929 3.929 0 0 1 .7-5.5c.022-.017.132-.1.153-.117.108-.071.2-.13.295-.185a3.929 3.929 0 0 1 5.151 1.055l.417.565c3.33 4.953 7.048 5.153 7.085 5.154a9.607 9.607 0 0 1 7.007 3.011 13.738 13.738 0 0 1 3.521 5.95l2.114 7.067a2.439 2.439 0 0 1 -1.241 2.872 32.468 32.468 0 0 1 -11.073 3.219 2.462 2.462 0 0 1 -.294.018z"/><path d="m4.85 45.766a1 1 0 0 1 -.995-.9l-.207-2.051a1 1 0 0 1 1.991-.2l.207 2.051a1 1 0 0 1 -.9 1.1c-.029-.002-.063 0-.096 0z"/><path d="m10.514 39.131a.969.969 0 0 1 -.964-.773l-1.92-12.138a1.826 1.826 0 0 0 -3.62.468l.4 3.954a1 1 0 0 1 -1.99.2l-.4-3.95a3.825 3.825 0 0 1 7.584-.986l1.9 12.042a1 1 0 0 1 -.992 1.18z"/></svg>