<svg id="Capa_1" enable-background="new 0 0 467.902 467.902" height="512" viewBox="0 0 467.902 467.902" width="512" xmlns="http://www.w3.org/2000/svg"><g><path d="m428.642 53.15c-54.05-54.355-143.252-51.653-194.713 4.847-51.465-56.498-140.663-59.203-194.713-4.846-53.748 53.526-51.917 141.667 3.462 193.329-28.332 27.059-12.101 75.683 26.462 80.423-2.31 26.406 20.165 50.621 46.75 50.172 1.63 29.069 30.806 49.877 58.778 42.195 9.177 34.632 53.292 46.466 78.601 20.977 14.374-14.288 25.805-23.298 26.534-44.938 23.751-.662 44.301-21.491 44.663-45.228 23.979-.37 44.871-21.269 45.24-45.241 24.876-.378 46.445-22.83 45.287-48.176l13.647-13.646c52.348-52.347 52.348-137.522.002-189.868zm-365.387 215.179 12.818-12.818c3.313-3.313 7.663-4.969 12.015-4.969 14.922-.099 22.711 18.35 12.013 28.997 0 0-12.818 12.818-12.818 12.818-16.592 15.275-39.305-7.429-24.028-24.028zm35.741 61.78c0-4.539 1.768-8.806 4.977-12.015l12.825-12.824c3.208-3.205 7.472-4.97 12.007-4.97 15.049-.026 22.677 18.38 12.014 29.005 0 0-11.31 11.31-11.31 11.31-3.457 3.918-8.206 6.569-13.523 6.484-9.131.188-17.179-7.857-16.99-16.99zm51.726 55.746c-6.591-6.324-6.591-17.703 0-24.027 0 0 11.31-11.311 11.31-11.311 6.594-7.828 18.17-8.847 25.537-1.508 6.624 6.625 6.624 17.402 0 24.028l-12.819 12.819c-6.624 6.627-17.403 6.626-24.028-.001zm94.153 20.361-12.818 12.818c-3.209 3.209-7.476 4.977-12.014 4.977-4.539 0-8.806-1.768-12.015-4.977-6.59-6.325-6.593-17.704.001-24.028 0 0 12.817-12.818 12.817-12.818 6.624-6.625 17.404-6.625 24.028-.001 6.592 6.325 6.593 17.704.001 24.029zm135.159-136.29c-6.325 6.591-17.704 6.592-24.028 0 0 0-66.757-66.757-66.757-66.757l-21.213 21.213 66.757 66.757c6.624 6.625 6.624 17.403 0 24.028-6.625 6.627-17.403 6.625-24.028 0l-65.625-65.625-1.132-1.132-21.213 21.213 1.132 1.132 65.625 65.625c6.625 6.625 6.625 17.404 0 24.029s-17.404 6.625-24.029 0l-.013.013c-12.189-11.784-29.224-15.664-44.61-11.64-4.898-20.014-25.017-35.166-45.249-34.725-.981-21.542-19.193-41.002-40.715-43.327 2.84-36.96-37.752-62.413-69.786-44.206-44.614-39.852-47.362-109.811-4.719-152.161 42.398-42.695 112.452-39.866 152.287 4.847l-37.086 37.086 29.717 29.717c22.827 22.829 58.003 25.97 84.23 9.426l90.458 90.459c6.621 6.624 6.621 17.403-.003 24.028zm27.395-48.121-4.571 4.57c-.521-.574-1.058-1.138-1.61-1.69l-110.49-110.491-10.607 10.606c-14.774 14.774-38.814 14.776-53.591 0l-8.504-8.504 41.933-41.933c101.861-93.753 241.173 45.647 147.44 147.442z"/></g></svg>