<?xml version="1.0"?>
<svg xmlns="http://www.w3.org/2000/svg" xmlns:xlink="http://www.w3.org/1999/xlink" xmlns:svgjs="http://svgjs.com/svgjs" version="1.1" width="512" height="512" x="0" y="0" viewBox="0 0 384 384" style="enable-background:new 0 0 512 512" xml:space="preserve" class=""><g>
<g xmlns="http://www.w3.org/2000/svg">
	<g>
		<path d="M192,0C112.6,0,48,64.6,48,144c0,74.344,118.232,218.104,131.72,234.256c3.04,3.64,7.536,5.744,12.28,5.744    s9.24-2.104,12.28-5.744C217.768,362.104,336,218.344,336,144C336,64.6,271.4,0,192,0z M192,342.624    C152.176,292.48,80,191.712,80,144c0-61.76,50.24-112,112-112s112,50.24,112,112C304,191.712,231.824,292.48,192,342.624z" fill="#000000" data-original="#000000" style=""/>
	</g>
</g>
<g xmlns="http://www.w3.org/2000/svg">
	<g>
		<path d="M192,64c-44.112,0-80,35.888-80,80s35.888,80,80,80c21.744,0,42.08-8.576,57.264-24.144    c6.168-6.328,6.04-16.456-0.28-22.624c-6.328-6.168-16.456-6.048-22.624,0.28C217.248,186.856,205.048,192,192,192    c-26.472,0-48-21.528-48-48s21.528-48,48-48s48,21.528,48,48c0,8.832,7.168,16,16,16c8.832,0,16-7.168,16-16    C272,99.888,236.112,64,192,64z" fill="#000000" data-original="#000000" style=""/>
	</g>
</g>
<g xmlns="http://www.w3.org/2000/svg">
</g>
<g xmlns="http://www.w3.org/2000/svg">
</g>
<g xmlns="http://www.w3.org/2000/svg">
</g>
<g xmlns="http://www.w3.org/2000/svg">
</g>
<g xmlns="http://www.w3.org/2000/svg">
</g>
<g xmlns="http://www.w3.org/2000/svg">
</g>
<g xmlns="http://www.w3.org/2000/svg">
</g>
<g xmlns="http://www.w3.org/2000/svg">
</g>
<g xmlns="http://www.w3.org/2000/svg">
</g>
<g xmlns="http://www.w3.org/2000/svg">
</g>
<g xmlns="http://www.w3.org/2000/svg">
</g>
<g xmlns="http://www.w3.org/2000/svg">
</g>
<g xmlns="http://www.w3.org/2000/svg">
</g>
<g xmlns="http://www.w3.org/2000/svg">
</g>
<g xmlns="http://www.w3.org/2000/svg">
</g>
</g></svg>
